<svg version="1.2" xmlns="http://www.w3.org/2000/svg" viewBox="0 0 720 540" width="720" height="540">
	<title>web-developer-svg</title>
	<style>
		.s0 { fill: #00b0e3 } 
		.s1 { fill: #24ceff } 
		.s2 { fill: #47d6ff } 
		.s3 { fill: #00b2e5 } 
		.s4 { fill: #ffffff } 
		.s5 { fill: #0085ab } 
		.s6 { fill: #46d6ff } 
		.s7 { fill: #9ce9ff } 
		.s8 { fill: #6cdeff } 
		.s9 { opacity: .1;fill: none;stroke: #000000;stroke-linecap: round;stroke-miterlimit:10;stroke-width: .5 } 
		.s10 { fill: #00475c } 
		.s11 { fill: #94e7ff } 
		.s12 { opacity: .3;fill: #000000 } 
		.s13 { fill: #004e65 } 
		.s14 { fill: #0087ae } 
		.s15 { opacity: .1;fill: #000000 } 
		.s16 { fill: #0088af } 
		.s17 { fill: none;stroke: #000000;stroke-linecap: round;stroke-miterlimit:10;stroke-width: .5 } 
		.s18 { fill: none;stroke: #000000;stroke-linecap: round;stroke-miterlimit:10;stroke-width: .5;stroke-dasharray: 2.391552 } 
		.s19 { opacity: .5;fill: #000000 } 
		.s20 { fill: #e4f9ff } 
	</style>
	<g id="SvgjsG1008">
		<g id="Layer">
			<path id="Layer" class="s0" d="m446.3 508.6c-0.6 0-1.1-0.3-1.5-0.7l-145.3-180.7c-0.7-0.9-0.6-2 0.3-2.7 0.8-0.6 1.9-0.5 2.6 0.3l145.3 180.7c0.7 0.8 0.6 2-0.2 2.7-0.4 0.2-0.8 0.4-1.2 0.4z"/>
			<path id="Layer" class="s1" d="m220.8 508.6c-0.4 0-0.8-0.2-1.2-0.4-0.8-0.7-0.9-1.9-0.2-2.7l145.3-180.7c0.7-0.8 1.8-0.9 2.6-0.3 0.8 0.7 1 1.8 0.3 2.7l-145.3 180.7c-0.4 0.4-0.9 0.7-1.5 0.7z"/>
			<path id="Layer" class="s1" d="m366.2 508.6c-0.6 0-1.1-0.3-1.5-0.7l-145.3-180.7c-0.7-0.9-0.6-2 0.2-2.7 0.8-0.6 2-0.5 2.7 0.3l145.3 180.7c0.7 0.8 0.5 2-0.3 2.7-0.3 0.2-0.7 0.4-1.1 0.4z"/>
			<path id="Layer" class="s0" d="m246.6 330.8h-67.6c-2.6 0-4.8-2.2-4.8-4.8 0-2.7 2.2-4.8 4.8-4.8h67.6c2.6 0 4.8 2.1 4.8 4.8 0 2.6-2.2 4.8-4.8 4.8z"/>
			<path id="Layer" class="s1" d="m440.9 330.8h-193c-2.7 0-4.8-2.2-4.8-4.8 0-2.7 2.1-4.8 4.8-4.8h193z"/>
			<path id="Layer" class="s0" d="m293.5 421.6c-2.9 0-5.3-2.4-5.3-5.3 0-2.9 2.4-5.2 5.3-5.2 2.9 0 5.2 2.3 5.2 5.2 0 2.9-2.3 5.3-5.2 5.3z"/>
			<path id="Layer" class="s2" d="m373.6 421.6c-2.9 0-5.2-2.4-5.2-5.3 0-2.9 2.3-5.2 5.2-5.2 2.9 0 5.2 2.3 5.2 5.2 0 2.9-2.3 5.3-5.2 5.3z"/>
			<path id="Layer" class="s3" d="m235 117.5c0-1.3 1-2.3 2.3-2.3h75.6c1.3 0 2.3 1 2.3 2.3v58.1c0 1.3-1 2.3-2.3 2.3h-75.6c-1.3 0-2.3-1-2.3-2.3z"/>
			<path id="Layer" fill-rule="evenodd" class="s4" d="m294.4 144.8v3.9c0 1-0.9 1.9-1.9 1.9h-2.4q-0.5 2.2-1.6 4.2l1.5 1.5c0.7 0.7 0.7 1.9 0 2.7l-2.7 2.7c-0.8 0.7-2 0.7-2.7 0l-1.5-1.5q-2 1.2-4.3 1.8v2c0 1-0.9 1.9-1.9 1.9h-3.9c-1 0-1.9-0.9-1.9-1.9v-2.2q-2.3-0.6-4.2-1.9l-1.5 1.6c-0.8 0.7-2 0.7-2.7 0l-2.7-2.8c-0.8-0.7-0.8-1.9 0-2.7l1.7-1.7q-1-1.9-1.4-4.1h-2.6c-1.1 0-1.9-0.8-1.9-1.9v-3.8c0-1.1 0.8-1.9 1.9-1.9h2.9q0.6-2 1.7-3.7l-2.1-2.1c-0.7-0.7-0.7-1.9 0-2.6l2.7-2.8c0.8-0.7 2-0.7 2.7 0l2.3 2.3q1.6-0.9 3.5-1.4v-3.1c0-1.1 0.9-1.9 1.9-1.9h3.9c1 0 1.9 0.8 1.9 1.9v3.1q1.9 0.5 3.6 1.4l2.1-2c0.7-0.8 1.9-0.8 2.7 0l2.7 2.7c0.8 0.7 0.8 1.9 0 2.7l-1.9 1.9q1.1 1.8 1.7 3.9h2.5c1 0 1.9 0.8 1.9 1.9zm-9.6 4.2c1.3-6.9-4.6-12.8-11.5-11.5-3.8 0.7-6.9 3.8-7.6 7.7-1.3 6.8 4.6 12.7 11.5 11.4 3.8-0.7 6.9-3.8 7.6-7.6z"/>
			<path id="Layer" class="s1" d="m337.4 82.8c0-1.3 1-2.3 2.3-2.3h75.6c1.3 0 2.3 1 2.3 2.3v58.2c0 1.2-1 2.3-2.3 2.3h-75.6c-1.3 0-2.3-1.1-2.3-2.3z"/>
			<path id="Layer" class="s4" d="m364 122.4c-0.5 0-1-0.2-1.3-0.5l-8.5-9.1c-0.7-0.8-0.7-2 0-2.8l8.6-9.2c0.7-0.8 1.9-0.8 2.6 0 0.8 0.8 0.8 2 0 2.8l-7.2 7.8 7.1 7.6c0.7 0.8 0.7 2.1 0 2.9-0.4 0.3-0.8 0.5-1.3 0.5zm27.1 0c-0.5 0-1-0.2-1.4-0.5-0.7-0.8-0.7-2.1 0-2.9l7.2-7.6-7.3-7.8c-0.7-0.8-0.7-2 0-2.8 0.7-0.8 1.9-0.8 2.6 0l8.6 9.2c0.4 0.3 0.6 0.9 0.6 1.4 0 0.5-0.2 1-0.6 1.4l-8.4 9.1c-0.4 0.3-0.9 0.5-1.3 0.5zm-17.8 2.5q-0.3 0-0.7-0.1c-0.9-0.4-1.4-1.6-1-2.6l8.4-22.1c0.4-1 1.5-1.5 2.4-1.1 1 0.4 1.4 1.6 1 2.6l-8.3 22.1c-0.3 0.8-1 1.2-1.8 1.2zm99.6 30.4h-168.8v-5.1c0-1.4 1.2-2.6 2.6-2.6h163.7c1.4 0 2.5 1.2 2.5 2.6 0 0 0 5.1 0 5.1z"/>
			<path id="Layer" class="s5" d="m468.2 245.3h-159.3c-2.6 0-4.8-2.1-4.8-4.7v-85.3h168.8v85.3c0 2.6-2.1 4.7-4.7 4.7z"/>
			<path id="Layer" class="s1" d="m464.8 151.5c0 0.6-0.5 1.2-1.1 1.2-0.7 0-1.2-0.6-1.2-1.2 0-0.7 0.5-1.2 1.2-1.2 0.6 0 1.1 0.5 1.1 1.2zm-8.1 0c0 0.6-0.5 1.2-1.2 1.2-0.7 0-1.2-0.6-1.2-1.2 0-0.7 0.5-1.2 1.2-1.2 0.7 0 1.2 0.5 1.2 1.2zm-8.2 0c0 0.6-0.5 1.2-1.2 1.2-0.6 0-1.1-0.6-1.1-1.2 0-0.7 0.5-1.2 1.1-1.2 0.7 0 1.2 0.5 1.2 1.2z"/>
			<path id="Layer" class="s3" d="m406.6 167.5h-93.7c-0.9 0-1.6-0.7-1.6-1.6 0-0.9 0.7-1.7 1.6-1.7h93.7c0.9 0 1.7 0.8 1.7 1.7 0 0.9-0.8 1.6-1.7 1.6zm0 10.4h-93.7c-0.9 0-1.6-0.8-1.6-1.7 0-0.9 0.7-1.6 1.6-1.6h93.7c0.9 0 1.7 0.7 1.7 1.6 0 0.9-0.8 1.7-1.7 1.7zm-44.7 10.4h-49c-0.9 0-1.6-0.8-1.6-1.7 0-0.9 0.7-1.6 1.6-1.6h49c0.9 0 1.6 0.7 1.6 1.6 0 0.9-0.7 1.7-1.6 1.7z"/>
			<path id="Layer" class="s1" d="m406.6 209h-93.7c-0.9 0-1.6-0.7-1.6-1.6 0-0.9 0.7-1.6 1.6-1.6h93.7c0.9 0 1.7 0.7 1.7 1.6 0 0.9-0.8 1.6-1.7 1.6zm-44.7 10.4h-49c-0.9 0-1.6-0.7-1.6-1.6 0-0.9 0.7-1.7 1.6-1.7h49c0.9 0 1.6 0.8 1.6 1.7 0 0.9-0.7 1.6-1.6 1.6z"/>
			<path id="Layer" class="s3" d="m361.9 229.8h-49c-0.9 0-1.6-0.7-1.6-1.6 0-0.9 0.7-1.7 1.6-1.7h49c0.9 0 1.6 0.8 1.6 1.7 0 0.9-0.7 1.6-1.6 1.6z"/>
			<path id="Layer" class="s4" d="m406.6 188.3h-35.2c-0.9 0-1.6-0.8-1.6-1.7 0-0.9 0.7-1.6 1.6-1.6h35.2c0.9 0 1.7 0.7 1.7 1.6 0 0.9-0.8 1.7-1.7 1.7z"/>
			<path id="Layer" class="s1" d="m453.2 164.9l-25 25c-0.6 0.6-1.6 0.6-2.3 0-0.6-0.7-0.6-1.7 0-2.4l24.9-24.9c0.7-0.6 1.7-0.6 2.4 0 0.6 0.7 0.6 1.7 0 2.3z"/>
			<path id="Layer" class="s1" d="m453.8 215.5c-1.8 7.9-9.7 12.7-17.6 10.9-8-1.9-12.8-9.8-11-17.7 1.9-7.9 9.8-12.8 17.7-10.9 7.9 1.9 12.8 9.8 10.9 17.7z"/>
			<path id="Layer" class="s3" d="m429.3 230.6c-4.6 0-8.3-3.7-8.3-8.3 0-4.6 3.7-8.3 8.3-8.3 4.6 0 8.3 3.7 8.3 8.3 0 4.6-3.7 8.3-8.3 8.3z"/>
			<path id="Layer" class="s5" d="m304.1 236.2v29.7l27.3-27.3"/>
			<g id="Layer">
				<path id="Layer" class="s6" d="m275.1 273.9h59.9l21.6 41.7h-59.9z"/>
				<path id="Layer" class="s4" d="m298 312.5l-18-34.5c-0.3-0.7 0.2-1.6 1-1.6h51.8c0.4 0 0.8 0.3 1 0.6l17.9 34.5c0.4 0.8-0.2 1.6-1 1.6h-51.8c-0.4 0-0.8-0.2-0.9-0.6z"/>
				<path id="Layer" class="s7" d="m296.7 315.6h48.5v5.6h-48.5z"/>
				<path id="Layer" class="s8" d="m386.9 315.6h-47.8c-1.6 0-2.8 1.3-2.8 2.8 0 1.5 1.2 2.8 2.8 2.8h47.8c1.5 0 2.8-1.3 2.8-2.8 0-1.5-1.3-2.8-2.8-2.8z"/>
				<path id="Layer" class="s7" d="m296.7 315.6l-21.6-41.7-1.1 0.9c-0.7 0.5-0.9 1.4-0.5 2.2l23.2 44.2c0 0 0-5.6 0-5.6z"/>
				<path id="Layer" class="s8" d="m313.2 318.2h5.4v0.9h-5.4z"/>
				<path id="Layer" class="s8" d="m319.9 318.2h5.4v0.9h-5.4z"/>
				<path id="Layer" class="s8" d="m326.6 318.2h5.4v0.9h-5.4z"/>
			</g>
			<g id="Layer">
				<path id="Layer" class="s5" d="m405.9 397.2c0 0-49.6 38.7-57.5 48.5-3 3.7-8.2 10.2-13.5 16.9-8.9 11-18.2 22.4-19.3 22.7-1.8 0.4-16.7-10.9-17.1-13.4-0.3-1.5 13.2-24.8 25-43.5 7.1-11.4 13.6-21.1 15.9-23.2 6-5.6 42.9-25.1 42.9-25.1z"/>
				<path id="Layer" fill-rule="evenodd" class="s9" d="m311.1 477c0 0 46.4-66 69.7-77.1"/>
				<path id="Layer" class="s10" d="m457.7 227.6q-0.8 1.8-1.8 3.7c-3.6 7-1 13.9-5.1 15.7q-0.4 0.1-0.8 0.2c-5.4 1.2-17.7-5.9-18.2-9.4-0.6-3.6 3.8-9.7 0-10.4-3.8-0.8-5.9 5.6-5.9 5.6-3.1 0.3-4.2-4.9-9.3-4.9q-1.1 0-2.1 0.3c-2.4 0.6-4.6 2.1-5.9 3.2-1 0.9-1.6 1.5-1.6 1.5 0 0-4.5-2.9-4.3-8.6 0.3-9 3.7-15.5 11.7-16.9 0.8-10 9.1-15.3 20.1-15.6 9.6-0.3 11.1 8.3 11.3 10.5-0.1-1.6-0.5-6.9-2.8-10.5 4.8-0.3 9.1 3.2 8 14.4 1.1-3.3 5-5.4 8-3-2.8 0-5.5 4.7-5.5 4.7 0 0 3.3 2.1 5.5 5.9 1.8 3.2 1.1 7.9-1.3 13.6z"/>
				<path id="Layer" class="s11" d="m450.8 247l-0.1 1.6-0.5 5.9c0 0-8.8 7.6-13.9 0q0-0.1-0.1-0.2c-1.6-2.3-3-3.1-4.3-3.3-2.7-0.3-5 2.4-7.3-0.5-6.6-8.5-9.3-18.2-10.1-22.1q1-0.3 2.1-0.3c5.1 0 6.2 5.2 9.3 4.9 0 0 2.1-6.4 5.9-5.6 3.8 0.7-0.6 6.8 0 10.4 0.2 1.5 2.8 3.8 6.1 5.8 3.8 2.3 8.5 4.1 11.5 3.7q0.3 0 0.6-0.1 0.4-0.1 0.8-0.2z"/>
				<path id="Layer" class="s12" d="m452.2 257.9c-4 2.7-11.4 3.1-11.4 3.1l-6-0.8c0 0-2.5-3.7-1.3-5.7 0.2-0.4 0.8-1 1.6-1.6 1.6-1.4 4.2-3 6.9-4.4 2.7-1.5 5.6-2.6 7.7-2.7 5-0.3 6.5 9.3 2.5 12.1z"/>
				<path id="Layer" class="s3" d="m451 355.2c-8.9 1.7-27.9-3.5-36.9-7.6-2.7-1.2-4.5-2.3-4.9-3.1-1.8-3 0-5.4 4.3-15.1q0.7-1.6 1.5-3.5c3-6.9 3-21.6 3-34.2-0.1-10.9-0.1-20.2 1.6-21.9 3.7-3.6 22.3-15.3 22.3-15.3l3.8 19.3c0 0 2.1 9.8 4.3 22.6 4 23.6 8.5 57.4 1 58.8z"/>
				<path id="Layer" class="s5" d="m457.2 363.8c0 0.9-8.9 21.7-16.3 24.6-7.5 3-52.5-0.3-52.5-0.3l-22.2 14.6 4.6 43.8 3.3 30.5 0.1 1c-6.8 4.5-24 5.7-25.8 1.8q0 0 0 0c-1.8-3.9-29.1-86-18.4-100.3 10.6-14.2 79.2-35 79.2-35 1.8 1.2 3.8 2.2 6.1 3.1 7.6 3.1 17.3 5.1 24.6 6.2 2.9 0.5 5.4 0.8 7.3 1 2.3 0.3 3.8 0.4 3.8 0.4 0 0 6.2 7.7 6.2 8.6z"/>
				<path id="Layer" class="s13" d="m377 506.6h-57.9c-0.2-1 0.1-2 1-3.1 2.4-2.8 8.2-5.6 13.9-8.1 5.4-2.3 10.6-4.3 12.3-5.7 4.1-3.2 2.2-9.5 2.1-9.9 0.6 1.3 3 2 6.1 2.3 6.1 0.4 15.2-1.1 19.7-4.1l-0.1-1c1.7 3.3 2.5 19.6 2.8 26.5 0 1.9 0.1 3.1 0.1 3.1z"/>
				<path id="Layer" class="s14" d="m354.5 482.1c-0.2 2.7-0.6 7.2-1.4 8.4-1.2 1.8-13.9 8-15.7 7.4-1.2-0.4-2.6-1.6-3.4-2.5 5.4-2.3 10.6-4.3 12.3-5.7 4.1-3.2 2.2-9.5 2.1-9.9 0.6 1.3 3 2 6.1 2.3zm22.5 24.5h-57.9c-0.2-1 0.1-2 1-3.1h56.8c0 1.9 0.1 3.1 0.1 3.1z"/>
				<path id="Layer" class="s13" d="m315.6 485.3c0 0-4.4 11.6-8.2 17.7-1.5 2.4-3 4-4 3.6-3.5-1.3-39.3-31.7-35.9-33.9 0.5-0.3 1.3-0.6 2.3-0.7 3.1-0.4 8.3 0.1 13.1 0.5 4.1 0.5 7.9 0.9 9.8 0.9 5.1 0 5.8-1.5 5.8-1.5 0.1 0.6 1 1.7 2.4 3.1 4.4 4.2 13.3 10.6 14.7 10.3z"/>
				<path id="Layer" class="s14" d="m300.9 475c-7.6 5-15.5 2-17 0.8-1.2-0.8-1.2-2.4-1-3.3 4.1 0.5 7.9 0.9 9.8 0.9 5.1 0 5.8-1.5 5.8-1.5 0.1 0.6 1 1.7 2.4 3.1zm6.5 28c-1.5 2.4-3 4-4 3.6-3.5-1.3-39.3-31.7-35.9-33.9 0.5-0.3 1.3-0.6 2.3-0.7z"/>
				<path id="Layer" class="s11" d="m414.1 317.4c-2.8 3.9-7.8 9.8-11.9 9.2q-0.2 0-0.5-0.1c-7.9-1.4-54.1-13-56.3-13.4-2.2-0.4-17.8-0.6-16.9-2.2 0.9-1.7 9.8-6.8 12.1-6.7 2.4 0.1 11.8 2.8 21.1 2.5 9.4-0.3 33.8 0 33.8 0l1.2-2 1.8-3.1c-0.5 9.1 10.4 16.5 15.6 15.8z"/>
				<path id="Layer" fill-rule="evenodd" class="s9" d="m414.1 351.1c0 0-2.1 11.4 6.2 15.2m-10.5-6c0 0-55 23.4-57.6 30.7-2.7 7.2 14 86 14 86z"/>
				<path id="Layer" class="s15" d="m457.2 363.8c0 0.9-8.9 21.7-16.3 24.6-7.5 3-52.5-0.3-52.5-0.3l-22.2 14.6 4.6 43.8c0 0-9.4-50-9.4-53.3 0-2.8 62.2-20.7 78.5-39.4 6.5 1.1 11.1 1.4 11.1 1.4 0 0 6.2 7.7 6.2 8.6z"/>
				<path id="Layer" class="s12" d="m427.9 310.7c-3.8 5.5-10 12.4-14.4 18.7q0.7-1.6 1.5-3.5c3-6.9 3-21.6 3-34.2l13.3-8.9c0 0 2.9 19.1-3.4 27.9z"/>
				<path id="Layer" class="s16" d="m416.6 315.7q-0.9 0.8-1.8 1.5-0.3 0.1-0.7 0.2c-5.2 0.7-16.1-6.7-15.6-15.8 0-0.6 0.5-2 1.4-3.7 4.5-9 17.9-29.1 20.4-28.2 0 0 8.6 1.3 11 13.1 2.2 11.1-5.8 24.6-14.7 32.9z"/>
				<path id="Layer" class="s12" d="m447.2 354.8c-1.9-0.2-4.4-0.5-7.3-1-7.3-1.1-17-3.1-24.6-6.2 6.7-0.2 21.1-4.6 22.8-37.5 0.8 6.1 2 12.5 3.6 19 2.2 8.7 4.3 17.8 5.5 25.7zm-3.6-108.5q-1 1.2-1.6 2.2c-2.7 1.4-5.3 3.1-6.9 4.4-1.1-1.3-2.2-1.7-3.2-1.9l6-7.4c1.8 1.1 3.8 2 5.7 2.7zm-29.5 71.1c-2.8 3.9-7.8 9.8-11.9 9.2q-0.2 0-0.5-0.1c-5.1-7.4-5.3-17-5-21.8l1.8-3.1c-0.5 9.1 10.4 16.5 15.6 15.8z"/>
				<path id="Layer" class="s12" d="m457.7 227.6q-0.8 1.8-1.8 3.7c-1.8 3.4-2 6.8-2.3 9.6q-0.9-0.7-1.9-1.2c-3.8 2.3-6.4 4.7-8.1 6.6-5.5-1.9-11.5-6.1-11.8-8.5-0.6-3.6 3.8-9.7 0-10.4-3.8-0.8-5.9 5.6-5.9 5.6-3.1 0.3-4.2-4.9-9.3-4.9q-1.1 0-2.1 0.3c-2.5 0.6-4.6 2.1-5.9 3.2 0 0 5.8-8.1 14.8-6.5 0 0-1.3-2.5-7.4-2.2 12.8-4.1 20.9-2.5 24.8 2.1 3.2 3.8 10.8 8.4 16.9 2.6z"/>
			</g>
			<g id="Layer">
				<path id="Layer" class="s7" d="m483.6 402.7h-44.5c0 0 35.3-10.4 35.3-80.4q0-1.4 0-2.7c-0.3-46.8-10.3-72.6-22.7-79.9 3.9-2.3 9-4.5 15.8-6q4.4-1 9.8-1.6c30.5-3.1 54.8 8.9 57.7 22.4 2.9 13.5-14.9 148.2-51.4 148.2z"/>
				<path id="Layer" class="s6" d="m474.4 322.3c0 70-35.3 80.4-35.3 80.4h-72.9l3-2.2 19.2-12.4 38.6-2.6c2-8.6 7.7-8.9 16.3-9.8 5-0.5 5.5-9 4-20.2-1.2-8-3.3-17.4-5.6-26.4-1.6-6.5-2.8-12.9-3.6-19-0.9-7.2-1.3-14.1-1.4-20.6-0.1-14.8 1.7-27.4 3.6-36.5q0.3-1.3 0.5-2.5 0.1-0.1 0.1-0.1c0.1-0.4 0.9-2 2.7-4.1 1.7-1.9 4.3-4.3 8.1-6.6q1 0.5 1.9 1.2c11.4 8.8 20.5 34.3 20.8 78.7q0 1.3 0 2.7z"/>
				<path id="Layer" class="s7" d="m460.3 506.6h-52.5c-1.8 0-2.6-2.2-1.1-3.3l13.1-10.3c5.8-4.6 9.2-11.6 9.2-19v-71.3h10.1v71.3c0 7.4 3.4 14.4 9.3 19l13.1 10.3c1.4 1.1 0.6 3.3-1.2 3.3z"/>
				<g id="Layer" style="opacity: .3">
					<path id="Layer" fill-rule="evenodd" class="s17" d="m500.4 234.8c0 0 0.4 1 1 2.9"/>
					<path id="Layer" fill-rule="evenodd" class="s18" d="m503.2 243.8c1.8 6.7 4.1 17.1 5.9 31.3 4.8 36.9 0 88.6-32.1 121.3"/>
					<path id="Layer" fill-rule="evenodd" class="s17" d="m474.8 398.7q-1.2 1-2.3 2.1"/>
				</g>
				<path id="Layer" class="s15" d="m439.1 402.7v19.5c-3.5 1.8-7 3.2-10.1 4.2v-23.7zm14-30.3c-2.4 7.4-17.2 6.1-19 11.6-3.8 11.6-5.9 6.5-20.6 8-8.4 0.8-14.5 6.2-18.2 10.7h-29.1l3-2.2 19.2-12.4 38.6-2.6c2.1-8.6 7.7-8.9 16.3-9.8 5-0.5 5.5-9 4-20.2-1.1-8-3.3-17.4-5.6-26.4-1.6-6.5-2.8-12.9-3.6-19-0.9-7.2-1.3-14.1-1.4-20.6 5.7 29.7 18.1 77.4 16.4 82.9z"/>
				<path id="Layer" class="s15" d="m474.4 322.3q0-1.4 0-2.7c-0.3-46.8-10.3-72.6-22.7-79.9 3.9-2.3 9-4.5 15.8-6-2 2.9-4.2 7.3-3.2 12 1.8 8.4 22 40.4 14.3 91.7-5.6 37-3.7 56.3 2.1 65.3h-41.6c0 0 35.3-10.4 35.3-80.4z"/>
			</g>
			<path id="Layer" class="s12" d="m219.8 284.2c0 1.6-0.2 3.1-0.5 4.5h-14.3c-4.2-2.8-11.1-8.3-15.2-16.7 3.9 4.2 10.4 9.3 17.1 10.8 5.8 1.4 10.1 0.8 12.9 1.4z"/>
			<g id="Layer">
				<path id="Layer" class="s3" d="m253.1 227.3c-1.6 5.8-9 17.1-15.7 29.1-7.3 13.2-13.8 27.3-11.2 36.2 0.6 2.3 0.9 3.9 0.9 5.1 0 3.9-3 2.7-5.9 0.5-3.1-2.3-6.2-5.6-6.2-5.6l0.3-17.3c0 0-9.9-9.1-1.8-28.8q0.8-1.9 1.8-3.9c11.1-22.5 27.8-46.1 12-52.8 21.8-1.3 29.1 25.4 25.8 37.5z"/>
				<path id="Layer" class="s19" d="m227.3 189.8c4 0.9 7.6 3.7 9.9 7.2 0.6 0.8 1 1.8 1.5 2.7 0.4 1 0.8 1.9 1.1 2.9 0.3 1 0.5 2.1 0.7 3.1l0.3 1.5 0.1 1.6c-0.1 4.2-1.5 8.3-2.9 12.2-1.4 3.9-3.1 7.7-4.8 11.5-3.5 7.6-7.2 15-10.5 22.6-1.7 3.8-3.3 7.7-4.4 11.6q-0.9 3-1.3 6c-0.3 2-0.2 4.1 0.4 5.9v0.1c0.1 0.3-0.1 0.6-0.4 0.7-0.3 0.2-0.7 0-0.8-0.3q0 0 0 0c-0.7-2.2-0.7-4.4-0.4-6.5q0.5-3.2 1.4-6.2c1.3-4 2.9-7.8 4.6-11.7 3.4-7.6 7.2-15 10.8-22.5 1.8-3.7 3.5-7.5 5-11.4 1.4-3.9 2.8-7.9 2.9-12v-1.5l-0.3-1.6c-0.1-1-0.4-2-0.7-3-0.2-1-0.6-1.9-1-2.9-0.5-0.9-0.9-1.9-1.5-2.7-2.2-3.5-5.7-6.3-9.7-7.3z"/>
				<path id="Layer" class="s16" d="m243.1 262.4c-6.7 17.5 0 30.9-10.1 32.8-4.5 0.9-6.6-2.5-7.4-6.5-1-4.7-0.3-10.1-0.3-10.1 0 0 1.7-4.3 5.2-8.5 2.9-3.5 7.1-6.8 12.6-7.7z"/>
				<path id="Layer" class="s7" d="m219.8 284.2c0 4.1-1 7.5-2.8 9.3q-0.3 0.3-0.6 0.5c-4.7 3.9-7.7-3.2-7.7-3.2 0 0-12.6-6.2-18.9-18.8-4.8-9.6-5.8-23.1 5.4-40.4 1.7 12.3 8.4 20.7 15.1 28.7q0 0 0 0 1.3 1.5 2.5 3c4.6 5.5 7.1 14.1 7 20.9z"/>
				<path id="Layer" class="s19" d="m195.2 231.6c-1.1 5.3-1.3 10.8-0.8 16.1 0.5 5.4 2 10.7 4.9 15.2 2.8 4.6 6.7 8.4 10.2 12.6 1.8 2 3.5 4.2 4.6 6.8 1.2 2.5 1.8 5.4 1.5 8.2 0 0.3-0.3 0.6-0.6 0.5-0.4 0-0.6-0.3-0.6-0.6q0 0 0-0.1c0.3-2.5-0.2-5.2-1.3-7.6-1-2.4-2.6-4.6-4.3-6.6-3.4-4.2-7.3-8.1-10-12.8-2.9-4.7-4.3-10.1-4.7-15.5-0.4-5.4-0.1-10.9 1.1-16.2z"/>
				<path id="Layer" class="s12" d="m243.1 262.4c-2 2.2-3.7 4.5-5.4 6.9-1.7 2.4-3.3 4.8-4.8 7.3-2.9 5.1-5.3 10.4-6.1 16.1-0.1 0.4-0.4 0.6-0.7 0.6-0.4-0.1-0.6-0.4-0.6-0.7q0 0 0-0.1c1.1-5.9 3.8-11.2 6.9-16.2 1.5-2.5 3.2-4.9 5-7.2 1.8-2.3 3.7-4.6 5.7-6.7z"/>
				<path id="Layer" class="s7" d="m239 293.1l-4.3 26.2c-0.2 1.1-1.1 1.9-2.3 1.9h-26.6c-1.1 0-2-0.8-2.3-1.9l-3.4-21.3-0.8-4.9c-0.3-1.5 0.8-2.8 2.3-2.8h35.1c1.5 0 2.6 1.3 2.3 2.8z"/>
				<path id="Layer" class="s6" d="m243.1 298.4h-47.9l1.3-7.1c0.3-1.5 1.6-2.6 3.1-2.6h39.1c1.5 0 2.8 1.1 3.1 2.6z"/>
				<path id="Layer" class="s12" d="m225.3 278.6c0 0-0.7 5.4 0.3 10.1h-6.3c0.3-1.4 0.5-2.9 0.5-4.5 0.1-6.8-2.4-15.4-7-20.9q-1.2-1.5-2.5-3 0 0 0 0c0.1-3.8 1-8.4 3.2-13.8 0.4 6.3 1.9 17.2 8.2 18.4 4.8 0.9 11-3.9 15.7-8.5-2.5 4.5-4.9 9.2-6.9 13.7-3.5 4.2-5.2 8.5-5.2 8.5zm-3.6 42.6h-15.9c-1.1 0-2-0.8-2.3-1.9l-3.4-20.9h13.8c-0.4 2.9-0.8 8.4 0.2 12.6 0.9 3.4 3.8 7.7 7.6 10.2z"/>
			</g>
			<g id="Layer">
				<path id="Layer" class="s5" d="m267.9 44.8c0-1.3 1-2.3 2.3-2.3h75.6c1.3 0 2.3 1 2.3 2.3v58.2c0 1.2-1 2.3-2.3 2.3h-75.6c-1.3 0-2.3-1.1-2.3-2.3z"/>
				<path id="Layer" class="s4" d="m286.6 64.7v6.7c0 0.6 0.4 1 1 1h3.7c0.5 0 1-0.4 1-1v-6.7c0-0.5 0.4-1 0.9-1h0.4c0.6 0 1 0.5 1 1v18.4c0 0.5-0.5 0.9-1 0.9h-0.4c-0.5 0-0.9-0.4-0.9-0.9v-7.6c0-0.5-0.5-1-1-1h-3.7c-0.6 0-1 0.5-1 1v7.6c0 0.5-0.5 0.9-1 0.9h-0.4c-0.5 0-1-0.4-1-0.9v-18.4c0-0.5 0.5-1 1-1h0.4c0.5 0 1 0.5 1 1zm13 1.1h-1.7c-0.6 0-1-0.4-1-1v-0.1c0-0.5 0.4-1 1-1h7.7c0.6 0 1 0.5 1 1v0.1c0 0.6-0.4 1-1 1h-1.7c-0.6 0-1 0.4-1 1v16.3c0 0.5-0.4 0.9-1 0.9h-0.3c-0.6 0-1-0.4-1-0.9v-16.3c0-0.6-0.5-1-1-1zm21.5 9.5c-0.2-2.7-0.3-5.7-0.3-8h-0.1c-0.4 2.3-1 4.7-1.6 7.1l-2.5 9.5h-1.5l-2.4-9.1c-0.6-2.6-1.2-5.1-1.6-7.5h-0.1c0 2.4-0.1 5.2-0.3 8.1l-0.3 7.7c0 0.5-0.5 0.9-1 0.9h-0.1c-0.6 0-1-0.4-1-1l1.1-18.4c0.1-0.5 0.5-0.9 1-0.9h0.8c0.5 0 0.9 0.3 1 0.8l2.2 8.5c0.7 2.7 1.2 4.7 1.6 7h0.1c0.4-2.3 0.8-4.3 1.5-7l2.1-8.5c0.1-0.5 0.5-0.8 0.9-0.8h0.9c0.6 0 1 0.4 1 0.9l1.1 18.4c0 0.6-0.4 1-1 1h-0.2c-0.5 0-0.9-0.4-1-0.9zm6.8-11.6h0.3c0.6 0 1 0.5 1 1v16.4c0 0.5 0.4 1 1 1h3.8c0.5 0 0.9 0.4 0.9 1 0 0.5-0.4 0.9-0.9 0.9h-6.1c-0.6 0-1-0.4-1-0.9v-18.4c0-0.5 0.4-1 1-1z"/>
			</g>
			<g id="Layer">
				<path id="Layer" class="s5" d="m373 47.9c2.6 0 3.2-1.7 3.2-3.3 0-1.3-0.2-2.6-0.3-3.9-0.1-1.4-0.3-2.6-0.3-4.1 0-4.1 2.6-5.9 5.9-5.9h0.5v2.4h-0.7c-1.9 0-2.7 1.4-2.7 3.5 0 1.2 0.1 2.4 0.3 3.5 0.1 1.2 0.2 2.3 0.2 3.4 0 3.6-1.2 4.9-3.2 5.4v0.1c2 0.6 3.2 1.9 3.2 5.5 0 1.2-0.2 2.4-0.2 3.5-0.2 1.2-0.3 2.3-0.3 3.6 0 2.1 0.7 3.5 2.8 3.5h0.6v2.4h-0.6c-3.1 0-5.8-1.5-5.8-5.9 0-1.4 0.2-2.8 0.3-4.1 0.1-1.4 0.3-2.7 0.3-4 0-1.5-0.6-3.3-3.2-3.3zm47.2 2.3c-2.5 0-3.1 1.8-3.1 3.3 0 1.3 0.1 2.6 0.2 4 0.2 1.3 0.3 2.7 0.3 4.1 0 4.4-2.7 5.9-5.8 5.9h-0.6v-2.4h0.7c2.1-0.2 2.8-1.4 2.8-3.5 0-1.3-0.2-2.4-0.3-3.6-0.1-1.1-0.3-2.3-0.3-3.4 0-3.7 1.3-5 3.2-5.6-1.9-0.6-3.2-1.8-3.2-5.5 0-1.1 0.2-2.2 0.3-3.4 0.1-1.1 0.3-2.3 0.3-3.5 0-2.1-0.8-3.2-2.8-3.5h-0.7v-2.4h0.6c3.3 0 5.8 1.8 5.8 5.9 0 1.5-0.1 2.7-0.3 4.1-0.1 1.3-0.2 2.6-0.2 3.9 0 1.6 0.6 3.3 3.1 3.3z"/>
				<path id="Layer" class="s1" d="m404.3 53.6v-9l-7.7-4.4-7.7 4.4v9l7.7 4.4z"/>
			</g>
			<g id="Layer">
				<path id="Layer" class="s1" d="m462.3 97.9c-7.2-3.6-15.9-2.2-21.7 3.6-7 7-7.3 18.4-0.7 25.7l-2.8-0.3c-0.4 0-0.7 0.2-0.7 0.6-0.1 0.3 0.2 0.6 0.5 0.6l4.3 0.6q0.3 0 0.5-0.2 0.2-0.1 0.2-0.4l0.5-4.2c0.1-0.3-0.2-0.6-0.5-0.6-0.4-0.1-0.7 0.2-0.7 0.5l-0.3 2.6c-6.2-6.8-6-17.4 0.6-24.1 5.4-5.3 13.5-6.6 20.3-3.3 0.3 0.2 0.7 0.1 0.8-0.3 0.2-0.3 0-0.6-0.3-0.8zm-16.2 34.6c7.3 3.6 16 2.1 21.7-3.6 7.1-7.1 7.3-18.4 0.8-25.8l2.8 0.4c0.3 0 0.7-0.2 0.7-0.6 0-0.3-0.2-0.6-0.6-0.7l-4.3-0.5q-0.2 0-0.4 0.1-0.2 0.2-0.2 0.5l-0.5 4.1c-0.1 0.4 0.2 0.7 0.5 0.7 0.3 0.1 0.7-0.2 0.7-0.5l0.3-2.7c6.2 6.9 6 17.5-0.7 24.1-5.3 5.4-13.4 6.7-20.2 3.3-0.3-0.1-0.7 0-0.8 0.3-0.2 0.3-0.1 0.7 0.2 0.9z"/>
			</g>
			<g id="Layer">
				<path id="Layer" class="s1" d="m613.1 167.5h-113c-2.1 0-3.7-1.7-3.7-3.7 0-2.1 1.6-3.8 3.7-3.8h113c2 0 3.7 1.7 3.7 3.8 0 2-1.7 3.7-3.7 3.7z"/>
				<path id="Layer" class="s3" d="m572.7 183.7h-72.6c-2.1 0-3.7-1.7-3.7-3.7 0-2.1 1.6-3.8 3.7-3.8h72.6c2.1 0 3.8 1.7 3.8 3.8 0 2-1.7 3.7-3.8 3.7zm0 17.4h-72.6c-2.1 0-3.7-1.7-3.7-3.7 0-2.1 1.6-3.8 3.7-3.8h72.6c2.1 0 3.8 1.7 3.8 3.8 0 2-1.7 3.7-3.8 3.7z"/>
			</g>
			<g id="Layer">
				<path id="Layer" class="s3" d="m212.5 105.5h-58.7c-2 0-3.7-1.6-3.7-3.7 0-2 1.7-3.7 3.7-3.7h58.7c2.1 0 3.7 1.7 3.7 3.7 0 2.1-1.6 3.7-3.7 3.7z"/>
				<path id="Layer" class="s1" d="m190.4 121.8h-36.6c-2 0-3.7-1.7-3.7-3.8 0-2 1.7-3.7 3.7-3.7h36.6c2 0 3.7 1.7 3.7 3.7 0 2.1-1.7 3.8-3.7 3.8zm0 17.4h-36.6c-2 0-3.7-1.7-3.7-3.8 0-2 1.7-3.7 3.7-3.7h36.6c2 0 3.7 1.7 3.7 3.7 0 2.1-1.7 3.8-3.7 3.8z"/>
			</g>
			<g id="Layer">
				<path id="Layer" class="s16" d="m562.2 375.8c-3.7 10.6-8 19.9-12.6 28.3-15.8 28.8-34.1 47.2-34.8 74.1 0 0-5.7-25.4-1.2-54.2 2.6-16.3 8.4-33.6 20.2-48.2 33-40.5 28.1-77.4 28.1-77.4 0 0 16.6 30.3 0.3 77.4z"/>
				<path id="Layer" class="s12" d="m523.3 446.6c-0.4-3.3-0.3-6.6 0-9.9q0.5-4.9 1.8-9.7c1.6-6.4 4-12.5 7-18.3 1.4-3 3.1-5.8 4.7-8.6l5.4-8.2c3.3-5.5 6.2-11.4 8.6-17.4 2.4-6 4.5-12.2 6.2-18.4q2.6-9.4 4.2-19.1c1.1-6.4 2-12.8 2.4-19.3 0.2-3.3 0.2-6.5 0.1-9.8-0.1-1.6-0.2-3.2-0.4-4.8-0.3-1.6-0.6-3.2-1.4-4.7 0.8 1.4 1.1 3.1 1.4 4.7 0.3 1.6 0.5 3.2 0.6 4.8 0.2 3.3 0.1 6.5 0 9.8-0.3 6.5-1.1 13-2.1 19.4q-1.6 9.7-4.1 19.2c-1.6 6.3-3.6 12.5-6 18.6-2.3 6.1-5.2 12-8.5 17.6l-5.3 8.3c-1.6 2.7-3.3 5.5-4.7 8.4-2.9 5.8-5.3 11.9-6.8 18.1q-1.3 4.7-1.8 9.5c-0.3 3.2-0.5 6.5 0 9.6 0 0.4-0.2 0.7-0.6 0.7-0.3 0.1-0.6-0.1-0.7-0.5z"/>
				<path id="Layer" class="s12" d="m549.6 404.1c-15.8 28.8-34.1 47.2-34.8 74.1 0 0-5.7-25.4-1.2-54.2 10.3-4.2 24.7-11 36-19.9z"/>
				<path id="Layer" class="s3" d="m523.9 506.6c0 0-11.5-19.7 15.8-44 27.3-24.3 48.6-56.5 44.5-82.5-26.1 30.3-95.5 73.3-76 126.5z"/>
				<path id="Layer" class="s12" d="m584.2 380.1c-2.6 5.7-6.1 11-9.9 16.1-3.8 5-8 9.7-12.4 14.2-4.4 4.5-9.3 8.6-14.1 12.6-4.8 4.1-9.1 8.7-13 13.6-7.8 9.9-13.8 21.2-17.5 33.2-1.7 6-3 12.2-3.1 18.4-0.2 6.2 0.6 12.6 3.1 18.3 0.1 0.3 0 0.6-0.4 0.8-0.3 0.1-0.6 0-0.8-0.3-2.5-6-3.3-12.5-3-18.8 0.2-6.4 1.5-12.6 3.3-18.7 3.8-12.1 10-23.4 17.9-33.3 3.9-4.9 8.3-9.5 13.2-13.5 4.9-4 9.7-8 14.2-12.5 4.5-4.4 8.7-9.1 12.5-14.1 3.8-5 7.3-10.3 10-16z"/>
			</g>
			<g id="Layer">
				<path id="Layer" class="s16" d="m132.3 363.8c0 0-14.3-13-21.8-45.4 43.6 37 54.2 69.9 54.2 69.9z"/>
				<path id="Layer" class="s12" d="m110.5 318.4q9.1 13 17.7 26.3 4.4 6.7 8.5 13.5c2.7 4.5 5.4 9.1 7.6 14 0.1 0.3 0 0.7-0.3 0.8-0.3 0.2-0.7 0-0.8-0.3q0 0 0 0c-2.1-4.8-4.7-9.4-7.3-14q-4-6.9-8.2-13.6-8.4-13.5-17.2-26.7z"/>
				<path id="Layer" class="s3" d="m163.9 382.1c-7.9-7.1-19.5-14.1-30.5-21.6-14.7-10.1-28.4-21.1-31-34.5-5.7 48.5 50.7 70.3 50.7 70.3l0.1 0.2 20.5 29.9c0 0 8.4-27.9-9.8-44.3z"/>
				<path id="Layer" class="s12" d="m102.4 326c0.1 5.4 1.7 10.7 3.9 15.5 2.4 4.9 5.6 9.3 9.5 13 3.8 3.8 8.2 6.9 12.7 9.8 4.5 3 9.1 5.8 13.6 8.9 8.9 6 17.4 13.1 23.4 22.2 6.1 9.1 8.8 20.1 8.8 31 0.1 0.3-0.2 0.6-0.6 0.6-0.3 0-0.6-0.2-0.6-0.6 0.1-10.7-2.5-21.5-8.4-30.5-5.8-9-14.1-16.1-23-22.2-4.4-3.1-8.9-6-13.4-9-4.5-2.9-8.9-6.1-12.8-10-3.8-3.8-7-8.2-9.3-13.1-2.3-4.9-3.8-10.2-3.8-15.6z"/>
			</g>
			<path id="Layer" class="s20" d="m565.6 528.3h-379.1c-6 0-10.9-4.8-10.9-10.8 0-6 4.9-10.9 10.9-10.9h379.1c6 0 10.9 4.9 10.9 10.9 0 5.9-4.9 10.8-10.9 10.8z"/>
			<g id="Layer">
				<g id="Layer">
				</g>
			</g>
		</g>
	</g>
</svg>